<svg xmlns="http://www.w3.org/2000/svg" viewBox="0 0 72.16 12.76"><defs><style>.cls-1,.cls-3,.cls-4{fill:none;}.cls-1,.cls-2,.cls-3,.cls-4{stroke:#09a5d3;}.cls-1{stroke-width:0.95px;}.cls-2{fill:#04a5d4;stroke-width:0.64px;}.cls-3{stroke-width:0.94px;}.cls-4{stroke-width:0.96px;}.cls-5{fill:#fff;}</style></defs><title>Asset 14</title><g id="Layer_2" data-name="Layer 2"><g id="Layer_1-2" data-name="Layer 1"><path class="cls-1" d="M52.56,12.26c-2.77,0-5.54,0-8.31,0-.62,0-.71-.21-.68-.74a4.22,4.22,0,0,1,3.3-3.83,1.12,1.12,0,0,1,.78.2A3.81,3.81,0,0,0,51.31,8a2.21,2.21,0,0,1,1.88,0l.65.21a4.33,4.33,0,0,0,2.47.16L57,8.14c.67-.23.8-.4,1.09-.47.73-.19,2,.95,2.15,1.09a4.42,4.42,0,0,1,1.23,2,1.32,1.32,0,0,1,0,1.07c-.27.39-.9.38-1.24.38-1.6,0-3.2.08-4.79,0C54.17,12.22,53.26,12.26,52.56,12.26Z"/><path class="cls-2" d="M49.89.32h0a3.64,3.64,0,0,1,1.28.29c.38.17.43.29.44.37a.29.29,0,0,1-.11.26c-.16.11-.42-.07-.66-.17A2.65,2.65,0,0,0,49.29,1,2.4,2.4,0,0,0,48,1.62a2.51,2.51,0,0,0-.77,2.71,2.58,2.58,0,0,0,2.1,1.88c1.61.32,3-.86,3.22-2.77A3.24,3.24,0,0,1,55.65.34a3.15,3.15,0,0,1,3.08,1.94,3.28,3.28,0,0,1-4.38,4.28c-.09,0-.28-.15-.3-.33a.3.3,0,0,1,.14-.29c.12-.07.27,0,.42,0a2.5,2.5,0,0,0,.94.25,2.6,2.6,0,0,0,.91-.1A2.66,2.66,0,0,0,55.72.93,2.64,2.64,0,0,0,53.08,3.2a8.91,8.91,0,0,1-.25,1.27A3.08,3.08,0,0,1,49.2,6.82a3.32,3.32,0,0,1-2.67-3.56A3.27,3.27,0,0,1,49.89.32Z"/><path class="cls-3" d="M54.66,12.25c.62,0,.71-.21.67-.73A4.14,4.14,0,0,0,52,7.79"/><path class="cls-4" d="M60.85,12.19c.63,0,.72-.21.69-.74a4.22,4.22,0,0,0-3.37-3.78"/><path class="cls-5" d="M0,9.67A3,3,0,0,1,5.61,8.16a.6.6,0,1,1-1,.6,1.82,1.82,0,0,0-3.4.91A1.84,1.84,0,0,0,3,11.5a1.79,1.79,0,0,0,1.53-.84.61.61,0,0,1,.83-.18.6.6,0,0,1,.17.83A3,3,0,0,1,0,9.67Z"/><path class="cls-5" d="M6.24,9.66a3,3,0,1,1,3,3A3,3,0,0,1,6.24,9.66Zm1.19,0A1.82,1.82,0,1,0,9.25,7.84,1.83,1.83,0,0,0,7.43,9.66Z"/><path class="cls-5" d="M19,9.66v2.41a.6.6,0,1,1-1.19,0V9.66a1.82,1.82,0,0,0-3.64,0v2.41a.6.6,0,1,1-1.19,0V9.66a3,3,0,1,1,6,0Z"/><path class="cls-5" d="M25.72,9.66v2.41a.59.59,0,1,1-1.18,0V9.66a1.83,1.83,0,0,0-3.65,0v2.41a.6.6,0,1,1-1.19,0V9.66a3,3,0,1,1,6,0Z"/><path class="cls-5" d="M32.46,9.66a.59.59,0,0,1-.6.59H27.72a1.83,1.83,0,0,0,1.73,1.24,2.39,2.39,0,0,0,1.34-.4.57.57,0,0,1,.79.28.62.62,0,0,1-.29.79,3,3,0,0,1-1.84.51,3,3,0,1,1,0-6A3,3,0,0,1,32.46,9.66Zm-4.74-.6h3.46a1.74,1.74,0,0,0-1.73-1.22A1.84,1.84,0,0,0,27.72,9.06Z"/><path class="cls-5" d="M33.18,9.67a3,3,0,0,1,5.61-1.51.6.6,0,1,1-1,.6,1.81,1.81,0,0,0-1.58-.91,1.83,1.83,0,1,0,0,3.65,1.79,1.79,0,0,0,1.53-.84.61.61,0,0,1,.83-.18.6.6,0,0,1,.17.83,3,3,0,0,1-5.53-1.64Z"/><path class="cls-5" d="M43.18,7.25a.6.6,0,0,1-.6.6h-.85v4.24a.59.59,0,1,1-1.18,0V7.85h-.87a.6.6,0,0,1,0-1.19h.87V4.27a.59.59,0,1,1,1.18,0V6.66h.85A.59.59,0,0,1,43.18,7.25Z"/><path class="cls-5" d="M67.82,7.14v3a2.43,2.43,0,0,1-4.85,0v-3a.59.59,0,1,1,1.18,0v3a1.25,1.25,0,1,0,2.49,0v-3a.59.59,0,1,1,1.18,0Z"/><path class="cls-5" d="M72.16,10.76a1.82,1.82,0,0,1-1.8,1.82,1.92,1.92,0,0,1-1.77-1.31.59.59,0,0,1,.46-.71c.32-.06.55.17.71.47a.56.56,0,0,0,.6.36.62.62,0,0,0,0-1.24,1.8,1.8,0,0,1-1.27-.52,1.77,1.77,0,0,1-.53-1.28,1.8,1.8,0,0,1,1.8-1.8A1.74,1.74,0,0,1,72.08,7.8a.59.59,0,0,1-.45.71.63.63,0,0,1-.71-.44.55.55,0,0,0-.56-.33.62.62,0,0,0,0,1.23,1.82,1.82,0,0,1,1.27.52A1.76,1.76,0,0,1,72.16,10.76Z"/></g></g></svg>